<?xml version="1.0" standalone="no"?>
<!DOCTYPE svg PUBLIC "-//W3C//DTD SVG 20010904//EN"
 "http://www.w3.org/TR/2001/REC-SVG-20010904/DTD/svg10.dtd">
<svg version="1.0" xmlns="http://www.w3.org/2000/svg"
 width="273.000000pt" height="145.000000pt" viewBox="0 0 273.000000 145.000000"
 preserveAspectRatio="xMidYMid meet">
<metadata>
Created by potrace 1.16, written by Peter Selinger 2001-2019
</metadata>
<g transform="translate(0.000000,145.000000) scale(0.100000,-0.100000)"
fill="#ffffff" stroke="none">
<path d="M1326 739 c-39 -31 -37 -90 4 -121 17 -12 30 -25 30 -30 0 -4 -22 -8
-50 -8 l-50 0 0 64 c0 49 -4 65 -16 70 -9 3 -265 6 -570 6 -531 0 -554 -1
-554 -18 0 -18 21 -19 392 -25 215 -4 460 -7 545 -7 l153 0 0 -45 0 -45 -430
0 -430 0 0 -25 c0 -23 4 -25 48 -25 116 0 415 -43 567 -81 97 -24 237 -69 248
-79 5 -4 -6 -10 -22 -13 -34 -7 -71 -56 -71 -95 0 -80 91 -134 174 -102 20 7
26 6 26 -4 0 -7 9 -25 20 -39 13 -17 20 -40 20 -71 0 -39 3 -46 20 -46 17 0
20 7 20 48 0 36 5 50 20 60 11 7 20 23 20 36 0 22 2 23 38 13 86 -23 162 25
162 103 0 49 -40 100 -78 101 -35 1 78 41 208 74 171 43 510 95 628 95 38 0
42 2 42 25 l0 25 -440 0 -440 0 0 50 0 50 540 0 c533 0 540 0 540 20 0 20 -7
20 -560 20 l-560 0 0 -70 0 -70 -55 0 c-30 0 -55 3 -55 6 0 3 14 19 30 34 17
15 30 37 30 49 0 76 -84 117 -144 70z m-116 -259 c0 -27 -3 -50 -6 -50 -3 0
-43 11 -88 25 -44 14 -128 36 -186 50 l-105 24 193 0 192 1 0 -50z m150 -74
c0 -112 -2 -126 -23 -157 -44 -65 -139 -68 -162 -5 -15 42 23 87 61 72 18 -7
18 -8 -3 -24 -15 -11 -20 -22 -14 -30 13 -21 54 -10 70 20 14 25 14 29 -7 57
-18 25 -22 43 -22 111 l0 80 50 0 50 0 0 -124z m160 43 c0 -75 -2 -83 -25
-101 -43 -34 -22 -103 29 -96 25 4 35 38 12 38 -20 0 -21 19 -2 26 20 8 53
-12 61 -36 8 -27 -18 -68 -51 -80 -32 -13 -83 8 -112 45 -20 25 -22 40 -22
156 l0 129 55 0 55 0 0 -81z m435 74 c-11 -2 -72 -16 -135 -30 -63 -14 -148
-35 -187 -48 l-73 -23 0 54 0 54 208 -1 c114 -1 198 -3 187 -6z"/>
</g>
</svg>
