<?xml version="1.0" encoding="utf-8"?>
<svg version="1.1" xmlns="http://www.w3.org/2000/svg" xmlns:xlink="http://www.w3.org/1999/xlink" x="0px" y="0px" xml:space="preserve" viewBox="0 0 1000 1000">
<path d="M214.5,275.6c7.1,3.4,14.3,6.7,21.3,10.4c47,24.8,93.8,49.9,137.7,80.1c31.9,21.9,61.9,46.4,87.3,75.8
	c16.7,19.3,30.4,40.4,37.8,65.2c0.1,0.3,0.4,0.5,1,1.2c6.3-5.6,12.6-11.2,18.8-16.9c30.6-28.1,66.4-46.4,106.5-56.5
	c32-8.1,64.3-13.2,97.3-11.9c28.3,1.1,55,7.6,78.3,24.8c24,17.8,38.3,41.9,44.3,70.8c8.1,39.3,2.6,76.3-21.4,109.3
	c-15.4,21.2-36.7,33.4-62.3,38.2c-31,5.9-61.4,1.2-91.6-5.4c-21.6-4.7-43.1-10-64.3-16.4c-34.6-10.4-65.4-28-92.8-51.4
	c-3.5-3-7.2-5.9-11.1-9.1c-1.2,3.8-2.3,7.3-3.4,10.7c-8.3,26.1-24,47.4-43.5,66.1c-37.1,35.6-80,62.3-127.4,81.9
	c-33,13.6-66.5,25.6-100.9,35.1c-3.8,1.1-8,0.9-12,1.3c-0.2-0.6-0.5-1.2-0.7-1.8c1.5-1.3,2.7-3.1,4.4-3.9c4.2-1.8,5.9-5.1,6.9-9.2
	c11.9-46.7,21.2-93.9,25.1-142c2.6-31.8,4.8-63.8,5.1-95.7c0.5-52.2-4.3-104.2-13.7-155.6c-4.4-23.9-10.1-47.5-15.3-71.3
	c-1.6-7.5-4.5-14.2-10.3-19.5c-0.9-0.9-1.5-2-2.3-3.1C213.9,276.4,214.2,276,214.5,275.6z M282.4,708.8c4.8-1.2,8.5-2,12.2-3
	c30.9-8,62.2-14.9,90.9-29.8c20.4-10.7,39.2-23.4,53.4-41.9c18.3-23.7,27.2-50.7,28.5-80.6c1.6-37.3-8.4-70.8-31.6-100.1
	c-17.6-22.3-40-39.2-64.7-52.7c-24.5-13.4-50-25.1-75.1-37.5c-3.9-1.9-8-3.5-12.7-5.6C308.8,475.1,307.8,591.6,282.4,708.8z
	 M663.1,455.6c-7.5,0.6-15,0.8-22.4,1.7c-46.6,6-87.7,23.4-119.1,59.5c-16.1,18.4-16.7,36.3-1,54.2c17.9,20.3,40.1,34.4,65.1,44.2
	c21.2,8.2,43.1,13.5,65.7,16.2c21.8,2.6,43.2,2.5,64.3-3.8c18.6-5.6,33.3-16.5,43.1-33.5c10.3-17.8,13.4-37.2,10.9-57.4
	c-3.8-31.5-19.3-55.2-48.4-69.1C703,458.8,683.4,455.7,663.1,455.6z"/>
<path d="M801.4,197.8c12.2,12.5,24.8,24.6,36.4,37.5c37.1,41.2,64.9,88.1,83.4,140.4c11,31.1,18.7,63,21.2,95.8
	c1.5,19.1,0,38.3,0.6,57.5c1,35.6-5.7,70-15.9,103.7c-21.3,70.7-59,131.6-112.3,182.7c-68.2,65.4-149.2,105.1-242.4,119.8
	c-76.2,12-150.9,5.5-223.6-20.1c-84.4-29.7-154.2-80.1-208.2-151.6c-43.8-58.1-70.5-123.4-80.4-195.6c-0.9-6.2-1.2-12.6-1.3-18.9
	c-0.2-18.3,0.4-36.7-0.2-55c-1-33.9,5.5-66.6,15.2-98.8c22.8-76.1,64.5-140.3,123-193.7c1.5-1.4,3.1-2.8,5.6-4.9
	c0,13.3-0.5,25.4,0.2,37.5c0.5,9.1-2.4,15.5-8.6,22.4c-55.9,61.7-89.7,133.7-98.4,216.8c-8.5,81.2,7.4,157.5,48.1,228.3
	c39.2,68.3,94.5,120.1,164.3,156.1c80.8,41.7,166.5,54.8,256.1,41.7c71.6-10.5,136.5-38,193.4-83c80.2-63.4,130.5-145.2,145.9-246.7
	c13.8-90.9-4.2-176-51.9-254.6c-14.1-23.3-30.7-44.7-49.6-64.4c-1.1-1.1-2.4-2.7-2.4-4.1c-0.2-16-0.1-31.9-0.1-47.9
	C800.3,198.4,800.8,198.1,801.4,197.8z"/>
<path d="M487.4,239.2c-63.4-0.4-126.6-2.8-189.5-10.6c-22.9-2.8-45.6-7.9-68.2-12.7c-6.3-1.3-12.4-4.8-18-8.2
	c-5.4-3.3-5.4-8.2,0.1-11.6c5.6-3.4,11.8-6.3,18.1-8.2c25.8-7.8,52.4-11.2,79.1-14c92.5-9.9,185.2-10.7,278.1-7.6
	c46.3,1.6,92.5,4.7,138.3,11.9c18.8,3,37.3,8.2,55.8,12.9c3.8,1,7.4,3.8,10.6,6.3c3.3,2.7,3.4,6.4,0,9c-4,2.9-8.3,6.1-12.9,7.3
	c-18,4.5-36.1,9.5-54.5,12.1C645.7,237.2,566.6,239.3,487.4,239.2z"/>
<path d="M656.9,403.7c-13.9,6-26.5,11.4-39.2,16.8c-5.6-8.4-10.9-16.4-16.6-24.9c6.3-3.2,12.6-6.4,18.9-9.6c2.4-1.2,5-2.1,7-3.7
	c4.4-3.6,7.8-2.8,11.3,1.3C644.1,390,650,396.2,656.9,403.7z"/>
<path d="M581,434.3c-12,5.5-22.9,10.5-34.4,15.7c-1.9-6.9-3.7-13.7-5.8-21.4c9.5-5.8,19.1-11.8,29.7-18.3
	C574.2,418.8,577.6,426.4,581,434.3z"/>
<path class="st0"  d="M693.1,514.1c3.2-0.5,7.6-0.4,8.5-5.3c0.6-3.1-4-5.9-9.2-5.5c-3.7,0.3-8.2,0.3-9.1,5.2
	C682.7,511.5,687.3,514.1,693.1,514.1z"/>
<path d="M693.1,514.1c-5.7,0-10.4-2.6-9.8-5.6c0.9-4.9,5.4-4.9,9.1-5.2c5.2-0.4,9.8,2.5,9.2,5.5
	C700.6,513.7,696.3,513.5,693.1,514.1z"/>
</svg>
